# xmcd
# 
# Track frame offsets:
#     150
#     12389
#     23593
#     38009
#     49317
#     62982
#     76286
#     90221
#     103356
#     117092
#     129703
#     142791
#     155896
#     167545
#     190497
#     205109
#     221146
#     237745
#     251239
#     261032
#     274436
#     283998
#     296316
#     310350
#     323656
#     335491
# 
# Disc length: 4629
# 
# Revision: 2
# Processed by: cddbd v1.5.2PL0 Copyright (c) Steve Scherf et al.
# Submitted via: fre:ac v1.0.31
# 
DISCID=8f12131a
DTITLE=B. B. King - Ladies and Gentlemen...Mr. B.B. King, Disc 1
DYEAR=2012
DGENRE=Blues
TTITLE0=Miss Martha King 1949
TTITLE1=When Your Baby Packs up And Goes 1949
TTITLE2=B.b. Boogie 1950
TTITLE3=She's Dynamite 1951
TTITLE4=Three O'clock Blues 1951
TTITLE5=Woke up This Morning 1953
TTITLE6=Blind Love 1953
TTITLE7=When my Heart Beats Like a Hammer 1954
TTITLE8=You Upset me Baby 1954
TTITLE9=Ten Long Years 1955
TTITLE10=Bad Luck 1956
TTITLE11=Troubles, Troubles, Troubles 1957
TTITLE12=Early in The Morning 1957
TTITLE13=Everyday I Have The Blues 1959
TTITLE14=(I've) Got a Right io Love my Baby 1960
TTITLE15=It's my Own Fault 1960
TTITLE16=Walking dr. Bill 1960
TTITLE17=Rock me Baby 1964
TTITLE18=You Ask me 1963
TTITLE19=Blues at Midnight 1963
TTITLE20=Sneakin' Around 1963
TTITLE21=How Blue Can You Get? 1964
TTITLE22=I Wonder Why 2012
TTITLE23=Please Accept my Love 1964
TTITLE24=Help The Poor 1964
TTITLE25=Never Trust a Woman 1964
EXTD=
EXTT0=
EXTT1=
EXTT2=
EXTT3=
EXTT4=
EXTT5=
EXTT6=
EXTT7=
EXTT8=
EXTT9=
EXTT10=
EXTT11=
EXTT12=
EXTT13=
EXTT14=
EXTT15=
EXTT16=
EXTT17=
EXTT18=
EXTT19=
EXTT20=
EXTT21=
EXTT22=
EXTT23=
EXTT24=
EXTT25=
PLAYORDER=
